<svg width="40" height="40" viewBox="0 0 40 40" fill="none" xmlns="http://www.w3.org/2000/svg">
<path d="M21.6667 31.6666C21.6667 32.2333 21.7334 32.7833 21.8167 33.3333H6.66671C5.78265 33.3333 4.93481 32.9821 4.30968 32.357C3.68456 31.7319 3.33337 30.884 3.33337 30V9.99996C3.33337 8.14996 4.81671 6.66663 6.66671 6.66663H16.6667L20 9.99996H33.3334C34.2174 9.99996 35.0653 10.3511 35.6904 10.9763C36.3155 11.6014 36.6667 12.4492 36.6667 13.3333V23.0166C35.2 22.1666 33.5 21.6666 31.6667 21.6666C26.15 21.6666 21.6667 26.15 21.6667 31.6666ZM33.3334 30V25H30V30H25V33.3333H30V38.3333H33.3334V33.3333H38.3334V30H33.3334Z" fill="currentColor" />
</svg>
