<svg width="40" height="40" viewBox="0 0 40 40" fill="none" xmlns="http://www.w3.org/2000/svg">
<path d="M8.33337 31.6667V17.18C8.33337 16.7533 8.42893 16.3494 8.62004 15.9683C8.81115 15.5872 9.07449 15.2733 9.41004 15.0267L18.385 8.22998C18.855 7.8711 19.3917 7.69165 19.995 7.69165C20.5984 7.69165 21.1384 7.8711 21.615 8.22998L30.59 15.025C30.9267 15.2717 31.19 15.5861 31.38 15.9683C31.5712 16.3494 31.6667 16.7533 31.6667 17.18V31.6667C31.6667 32.1133 31.5006 32.5028 31.1684 32.835C30.8362 33.1672 30.4467 33.3333 30 33.3333H24.36C23.9778 33.3333 23.6578 33.2044 23.4 32.9466C23.1423 32.6878 23.0134 32.3678 23.0134 31.9866V24.0383C23.0134 23.6572 22.8845 23.3378 22.6267 23.08C22.3678 22.8211 22.0478 22.6917 21.6667 22.6917H18.3334C17.9523 22.6917 17.6328 22.8211 17.375 23.08C17.1162 23.3378 16.9867 23.6572 16.9867 24.0383V31.9883C16.9867 32.3694 16.8578 32.6889 16.6 32.9466C16.3423 33.2044 16.0228 33.3333 15.6417 33.3333H10C9.55337 33.3333 9.16393 33.1672 8.83171 32.835C8.49948 32.5028 8.33337 32.1133 8.33337 31.6667Z" fill="currentColor" />
</svg>
