<svg width="40" height="40" viewBox="0 0 40 40" fill="none" xmlns="http://www.w3.org/2000/svg">
<path d="M21.6667 31.6666C21.6667 32.2333 21.7334 32.7833 21.8167 33.3333H6.66671C5.78265 33.3333 4.93481 32.9821 4.30968 32.357C3.68456 31.7319 3.33337 30.884 3.33337 30V9.99996C3.33337 9.1159 3.68456 8.26806 4.30968 7.64294C4.93481 7.01782 5.78265 6.66663 6.66671 6.66663H8.33337L11.6667 13.3333H16.6667L13.3334 6.66663H16.6667L20 13.3333H25L21.6667 6.66663H25L28.3334 13.3333H33.3334L30 6.66663H36.6667V23.0166C35.2 22.1666 33.5 21.6666 31.6667 21.6666C26.15 21.6666 21.6667 26.15 21.6667 31.6666ZM38.3334 29.8166L33.5167 29.4L31.6667 25L29.7834 29.4L25 29.8166L28.6334 32.95L27.5 37.6333L31.6667 35.15L35.75 37.6333L34.6667 32.95L38.3334 29.8166Z" fill="currentColor" />
</svg>
